<svg width="54" height="35" fill="none" xmlns="http://www.w3.org/2000/svg"><rect width="54" height="35" rx="3" fill="#21125E"/><path fill-rule="evenodd" clip-rule="evenodd" d="M41.584 11v.767L41.201 11h-3.005v.767L37.813 11H33.72c-.703 0-1.278.128-1.79.384V11h-2.876v.384c-.32-.256-.703-.384-1.215-.384H17.548l-.703 1.598L16.142 11h-3.26v.767L12.497 11h-2.75L8.47 14.005 7 17.329h3.26l.384-1.023h.895l.383 1.023h3.708v-.767l.32.767h1.854l.32-.767v.767h8.885v-1.662h.128c.055 0 .087 0 .104.015.024.02.024.068.024.176v1.407h4.603v-.384c.383.192.959.384 1.726.384h1.917l.384-1.023h.895l.383 1.023h3.708v-.96l.576.96h3.004V11h-2.877zm-21.607 5.37H18.89v-3.516l-1.534 3.516h-.959l-1.534-3.516v3.516H12.69l-.448-.959h-2.174l-.383 1.023H8.47l1.918-4.539h1.598l1.79 4.283v-4.283h1.726l1.407 3.069 1.278-3.069h1.79v4.475zm4.347-3.516h-2.493v.83h2.43v.896h-2.43v.895h2.493v.959h-3.58v-4.539h3.58v.959zm4.795 1.854c.128.255.192.447.192.83v.896h-1.087v-.576c0-.255 0-.639-.192-.895-.192-.191-.384-.191-.767-.191h-1.15v1.662h-1.088v-4.539h2.43c.575 0 .959 0 1.278.192.32.191.512.511.512 1.023 0 .703-.448 1.086-.768 1.214.32.064.512.256.64.384zm1.918 1.662H29.95v-4.54h1.087v4.539zm12.465 0h-1.406l-2.046-3.388v3.388h-2.173l-.384-.959h-2.237l-.384 1.023h-1.215c-.51 0-1.15-.128-1.534-.512-.383-.383-.575-.895-.575-1.726 0-.639.128-1.278.575-1.79.32-.383.895-.511 1.599-.511h1.022v.959h-1.023c-.383 0-.575.064-.83.256-.192.191-.32.575-.32 1.022 0 .512.064.832.32 1.087.191.192.447.256.767.256h.447l1.47-3.516h1.598l1.79 4.283v-4.283h1.599l1.854 3.132V11.96h1.086v4.41zm-31.644-1.918h-1.406l.703-1.79.703 1.79zm15.535-1.598c.191 0 .383 0 .511.064s.256.192.192.447c0 .192-.064.384-.192.448s-.32.064-.511.064h-1.279v-1.023h1.279zm8.246 1.598l.767-1.79.703 1.79h-1.47zm-12.53 7.352l1.663 1.854v-3.644l-1.662 1.79zm-5.178-.512v-.83h2.685l1.151 1.342-1.215 1.342h-2.62v-.959h2.365v-.895H17.93zm9.334.32c.383 0 .64-.192.64-.575-.065-.384-.32-.576-.704-.576h-1.343v1.15h1.407zm19.69-2.94v2.876c.191.32.319.767.319 1.215 0 .83-.384 1.534-1.023 1.917-.383.256-.959.32-1.534.32h-2.749v-.384c-.32.256-.895.384-1.47.384h-8.694v-1.47c0-.192 0-.192-.192-.192h-.128V25h-2.877v-1.726c-.447.192-1.023.192-1.47.192h-.448v1.47h-3.452l-.83-.959-.896.96h-5.625V18.67h5.753l.831.96.895-.96h3.836c.383 0 1.15.064 1.47.384v-.384h3.452c.32 0 1.023.064 1.407.384v-.384h5.178v.384c.255-.256.83-.384 1.278-.384h2.94v.384c.32-.256.768-.384 1.343-.384h2.685zM25.857 22.57h1.279c.959 0 1.854-.256 1.918-1.535 0-1.214-.96-1.47-1.79-1.47h-3.388l-1.343 1.47-1.278-1.47h-4.283v4.539h4.219l1.342-1.47 1.279 1.47h2.045V22.57zm7.863.575c0-.383-.063-.64-.191-.83-.064-.129-.256-.257-.576-.384.32-.128.767-.512.767-1.215a1.13 1.13 0 00-.575-1.023c-.32-.192-.767-.192-1.279-.192h-2.429v4.54h1.087v-1.663h1.15c.384 0 .64 0 .768.192.192.192.192.639.192.895v.575h1.086v-.895zm1.726-2.685h2.494v-.959h-3.58v4.54h3.58v-.96h-2.494v-.895h2.43v-.895h-2.43v-.83zm3.133 3.58h2.046c1.086 0 1.662-.447 1.662-1.406 0-.448-.128-.767-.32-.96-.256-.255-.64-.383-1.215-.383h-.575c-.128 0-.256 0-.383-.064-.128-.064-.256-.128-.256-.32 0-.127 0-.255.128-.319.127-.064.255-.064.447-.064h1.982v-1.087h-2.11c-1.15 0-1.534.704-1.534 1.343 0 1.29 1.023 1.343 1.981 1.392l.256.014c.192 0 .32.064.384.128a.488.488 0 01.128.32.488.488 0 01-.128.32c-.128.127-.256.127-.447.127H38.58v.96zm6.2 0c.64 0 1.087-.192 1.343-.447.256-.256.384-.576.384-.96 0-.319-.064-.639-.256-.894 0 0 0-.064-.064-.064-.255-.256-.64-.384-1.215-.384h-.575c-.128 0-.255 0-.383-.064-.192-.064-.256-.128-.256-.32 0-.127 0-.255.128-.319s.255-.064.447-.064h1.918v-1.087h-2.11c-1.15 0-1.534.704-1.534 1.343 0 1.29 1.023 1.343 1.982 1.392l.256.014c.191 0 .32.064.383.128a.488.488 0 01.128.32.488.488 0 01-.128.32c-.128.127-.256.127-.447.127h-2.046v.96h2.046zM32.38 20.59c-.128-.064-.32-.064-.511-.064H30.59v1.023h1.279c.191 0 .383 0 .51-.064.129-.064.193-.256.193-.448.064-.255-.064-.383-.192-.447z" fill="#fff"/></svg>