<svg width="54" height="35" fill="none" xmlns="http://www.w3.org/2000/svg"><rect width="54" height="35" rx="3" fill="#21125E"/><path d="M31.58 17.401a3.321 3.321 0 00-.967-2.37 3.32 3.32 0 00-2.375-.966h-.012a3.332 3.332 0 00-3.355 3.354 3.355 3.355 0 003.355 3.355 3.332 3.332 0 003.355-3.355v-.018z" fill="#F26E21"/><path d="M24.247 18.838c-.501.502-.964.699-1.462.71-1.215-.012-2.108-.911-2.108-2.193 0-.646.245-1.175.632-1.627a1.97 1.97 0 011.368-.567c.581 0 1.033.194 1.549.71v-1.484c-.516-.258-.968-.387-1.549-.387a3.74 3.74 0 00-2.186.91c-.17.154-.335.324-.474.518a3.252 3.252 0 00-.695 1.992c0 1.87 1.485 3.29 3.355 3.29l.027-.001h.038c.516 0 .968-.128 1.548-.386l-.043-1.485c-.021.022.022.043 0 .063v-.063zm11.569-3.914l-1.461 3.592-1.678-4.258h-1.354l2.645 6.516h.71l2.774-6.516h-1.355l-.281.666zm2.152 2.172v3.485h3.548v-1.033h-2.257v-1.741h2.193v-1.098h-2.194v-1.354h2.258v-1.097h-3.548v2.838zM8.807 14.258H7v6.323h1.807c.967 0 1.677-.259 2.258-.71a3.19 3.19 0 001.16-2.451c0-1.872-1.354-3.162-3.418-3.162zm1.483 4.774c-.387.323-.903.516-1.677.516h-.387v-4.193h.322c.775 0 1.29.129 1.678.516.451.386.71.967.71 1.548a1.929 1.929 0 01-.646 1.613zm3.743-4.775h-1.226v6.323h1.226v-6.323zm3.097 2.453c-.775-.259-.969-.452-.969-.775 0-.387.387-.71.904-.71.387 0 .71.13 1.032.517l.645-.839a2.81 2.81 0 00-1.87-.71c-1.098 0-2.001.775-2.001 1.807 0 .903.387 1.29 1.548 1.742.517.193.71.258.84.387a.71.71 0 01.386.645c0 .516-.386.903-.967.903a1.504 1.504 0 01-1.355-.839l-.775.775c.581.838 1.29 1.225 2.194 1.225 1.29 0 2.193-.838 2.193-2.064 0-1.097-.386-1.548-1.806-2.065zM45 17.935c.968-.193 1.484-.839 1.484-1.806 0-1.161-.839-1.871-2.258-1.871h-1.871v6.323h1.226v-2.517h.194l1.741 2.517H47l-2-2.646zm-1.032-.774h-.387v-1.935h.387c.774 0 1.226.322 1.226.968 0 .645-.452.967-1.226.967z" fill="#fff"/></svg>