<svg width="36" height="36" fill="none" xmlns="http://www.w3.org/2000/svg"><path fill-rule="evenodd" clip-rule="evenodd" d="M18 36c9.94 0 18-8.059 18-18S27.94 0 18 0 0 8.059 0 18s8.06 18 18 18zm7.436-29.868h-14.97a4.339 4.339 0 00-4.334 4.333v14.97a4.339 4.339 0 004.333 4.335h14.97a4.339 4.339 0 004.334-4.334V10.465a4.338 4.338 0 00-4.333-4.333zm-13.61 2.12a3.578 3.578 0 00-3.574 3.574v12.348a3.578 3.578 0 003.574 3.574h12.348a3.578 3.578 0 003.574-3.574V11.826a3.578 3.578 0 00-3.574-3.574H11.826zM18 24.418A6.425 6.425 0 0111.582 18 6.424 6.424 0 0118 11.582 6.425 6.425 0 0124.418 18c0 3.54-2.88 6.418-6.418 6.418zm6.625-11.509a1.52 1.52 0 01-1.273-2.348 1.518 1.518 0 011.273-.689 1.52 1.52 0 011.518 1.519 1.52 1.52 0 01-1.518 1.518zM14.293 18A3.711 3.711 0 0118 14.294a3.71 3.71 0 013.706 3.705A3.71 3.71 0 0118 21.706 3.712 3.712 0 0114.293 18z" fill="#21125E"/></svg>