<svg width="54" height="35" fill="none" xmlns="http://www.w3.org/2000/svg"><rect width="54" height="35" rx="3" fill="#21125E"/><path d="M15.524 5.604C12.97 5.604 11 7.254 11 10.128v8.197c.213 1.011 1.277 1.756 2.448 1.756 1.331 0 2.29-.958 2.29-2.129v-4.151h3.619v4.098c0 2.289-2.928 3.46-5.057 3.46-1.224 0-2.395-.373-3.247-1.011v9.048h5.749c2.022 0 4.364-1.916 4.364-4.365V5.604h-5.642z" fill="#1174CE"/><path d="M19.303 13.8v4.1c0 2.288-2.927 3.459-5.056 3.459-1.224 0-2.395-.373-3.247-1.011v9.048h5.748c2.023 0 4.365-1.916 4.365-4.365" fill="#02375E"/><path d="M35.644 19.975h2.501c.639 0 1.224-.585 1.224-1.224s-.585-1.224-1.224-1.224h-2.501v2.448z" fill="#146643"/><path d="M38.465 5.604c-2.608 0-4.525 1.65-4.525 4.471v3.726h6.707c.958 0 1.756.798 1.756 1.756s-.798 1.757-1.756 1.757c1.064 0 1.916.745 1.916 1.703 0 .958-.798 1.703-1.916 1.703h-6.76v8.676h5.749c2.022 0 4.364-1.916 4.364-4.365V5.604h-5.535z" fill="#1BCC38"/><path d="M42.35 15.557c0 .958-.798 1.757-1.756 1.757 1.064 0 1.916.745 1.916 1.703 0 .958-.799 1.703-1.916 1.703h-6.707v8.676h5.749c2.022 0 4.364-1.916 4.364-4.365m-4.684-9.261c0-.638-.585-1.224-1.224-1.224h-2.448v2.395h2.501a1.18 1.18 0 001.171-1.17z" fill="#146643"/><path d="M26.915 5.604c-2.608 0-4.524 1.65-4.524 4.471v4.577c.638-.532 1.437-.904 2.288-.904h6.068v1.277c-1.437-.32-2.82-.48-3.513-.48a2.726 2.726 0 00-2.714 2.716 2.726 2.726 0 002.714 2.714c.692 0 2.076-.107 3.513-.426v1.171H24.68c-.851 0-1.703-.32-2.288-.905v9.58h5.748c2.023 0 4.365-1.915 4.365-4.364V5.604h-5.59z" fill="#E20E37"/><path d="M30.747 13.8V15c-1.437-.32-3.055-.5-3.747-.5-1.49 0-2.48 1.323-2.48 2.814a2.726 2.726 0 002.714 2.714c.692 0 2.076-.106 3.513-.426v1.118H24.68c-.851 0-1.703-.32-2.288-.905v9.58h5.748c2.023 0 4.365-1.915 4.365-4.364" fill="#720A1E"/></svg>