<svg width="117" height="40" viewBox="0 0 110 40" fill="none" xmlns="http://www.w3.org/2000/svg"><mask id="a" maskUnits="userSpaceOnUse" x="0" y="1" width="117" height="39"><path fill-rule="evenodd" clip-rule="evenodd" d="M0 1.453h116.146V40H0V1.453z" fill="#fff"/></mask><g mask="url(#a)" fill-rule="evenodd" clip-rule="evenodd" fill="#28234A"><path d="M19.328 39.96c7.133 0 8.927-2.88 8.927-6.826 0-4.853-4.362-5.76-7.99-6.353-2.771-.473-4.035-.71-4.035-2.406 0-1.263 1.1-1.737 2.894-1.737 2.201 0 2.813.632 3.017 2.486l5.788-.868c-.49-3.985-2.731-5.997-8.642-5.997-6.48 0-8.763 2.604-8.763 6.747-.04 5.366 5.013 5.918 8.763 6.55 2.323.434 3.22.828 3.22 2.367 0 1.263-.774 1.815-3.098 1.815-2.567 0-3.342-.434-3.668-2.525l-5.625.829c.53 4.222 3.016 5.918 9.212 5.918zm18.659-4.34c-2.732 0-3.71-.592-3.71-2.565 0-1.776.978-2.486 3.913-2.486h2.935v2.052c0 1.973-.978 2.999-3.138 2.999zm-2.528 4.34c3.18 0 4.606-1.026 5.625-2.525v2.25h5.747V25.4c0-4.774-1.834-7.18-8.192-7.18-6.155 0-8.316 1.735-9.172 5.997l5.707.868c.367-1.815.897-2.368 3.26-2.368 2.284 0 2.65.947 2.65 2.526v1.46h-2.69c-7.296 0-9.783 2.21-9.783 6.707 0 4.42 2.242 6.55 6.848 6.55zm12.84-.276h5.87V9.241l-5.87 5.82v24.623zM61.342 26.82v-1.065c0-1.854.857-3.117 3.424-3.117 2.487 0 3.302 1.065 3.302 3.117v1.066h-6.726zM64.765 40c6.767 0 8.56-3.157 8.968-6.313l-5.585-.83c-.244 1.895-.611 2.881-3.383 2.881-2.812 0-3.424-1.38-3.424-3.196v-1.736h12.392v-3.788c0-5.287-2.08-8.799-8.968-8.799-6.807 0-9.13 3.551-9.13 8.05v5.682c0 4.38 2.364 8.049 9.13 8.049zm19.851 0c6.725 0 9.497-3.433 9.497-8.05v-5.68c0-4.696-2.772-8.05-9.497-8.05-6.726 0-9.416 3.354-9.416 8.05v5.682c0 4.616 2.65 8.049 9.416 8.049zm0-4.577c-2.365 0-3.547-1.223-3.547-3.196V26.15c0-2.012 1.182-3.235 3.546-3.235s3.628 1.223 3.628 3.235v6.077c0 1.973-1.264 3.196-3.628 3.196zm19.981-11.183h-3.146v15.32h-5.87V24.24l5.735-5.818h9.015l-5.734 5.819z"/></g><path fill-rule="evenodd" clip-rule="evenodd" d="M26.52 0l-7.725 8.05h19.084L45.604 0H26.52z" fill="#8AC4EB"/><path clip-rule="evenodd" d="M10.554 3.33l-7.238 7.217h25.1l7.237-7.216h-25.1z" stroke="#28234A" stroke-width="1.218" stroke-linecap="round" stroke-linejoin="round"/></svg>