<svg width="40" height="36" fill="none" xmlns="http://www.w3.org/2000/svg"><path fill-rule="evenodd" clip-rule="evenodd" d="M15.424 36c6.426 0 8.041-2.595 8.041-6.15 0-4.372-3.929-5.19-7.197-5.723-2.497-.426-3.635-.64-3.635-2.168 0-1.137.991-1.564 2.607-1.564 1.983 0 2.534.569 2.717 2.24l5.215-.783c-.441-3.59-2.46-5.402-7.785-5.402-5.838 0-7.895 2.346-7.895 6.078-.036 4.834 4.517 5.332 7.895 5.9 2.093.392 2.901.747 2.901 2.133 0 1.138-.698 1.636-2.79 1.636-2.314 0-3.012-.392-3.306-2.275l-5.067.746C7.602 34.472 9.842 36 15.424 36" fill="#28234A"/><path fill-rule="evenodd" clip-rule="evenodd" d="M21.903 0l-6.96 7.251h17.192L39.095 0H21.903z" fill="#8AC4EB"/><path clip-rule="evenodd" d="M7.52 3L1 9.501h22.611L30.131 3H7.52z" stroke="#28234A" stroke-width="1.218" stroke-linecap="round" stroke-linejoin="round"/></svg>