<svg width="263" height="351" fill="none" xmlns="http://www.w3.org/2000/svg"><mask id="a" maskUnits="userSpaceOnUse" x="0" y="0" width="263" height="351"><path fill="#F1F5F5" d="M0 0h263v351H0z"/></mask><g mask="url(#a)"><path fill="#F1F5F5" d="M0 0h263v351H0z"/><path d="M85.483 210.558H64.207c-.458-.072-.927-.152-1.297-.421-.557-.405-.799-1.083-.91-1.787V100.209c.148-.938.646-1.815 1.525-2.1.218-.072.455-.073.682-.109H172.25l.681.108c.635.324 1.204.763 1.416 1.418.072.22.072.455.109.683v21.274l21.304-.035.683.107c.636.323 1.205.763 1.42 1.418.071.22.071.456.108.684v108.132c-.148.938-.646 1.815-1.525 2.101-.22.071-.456.072-.683.108L87.69 234c-.458-.072-.927-.152-1.297-.422-.557-.405-.799-1.082-.91-1.787v-21.233zm108.075 1.899H89.896v17.126l103.662-.003v-17.123zm-23.373-56.109l-21.137 20.416 30.607 30.446c.265.365.427.517.532.83h13.371v-29.841l-23.373-21.851zm-76.943 51.503c.013.063.023.125.03.189h80.954l-39.604-39.397-41.38 39.208zm76.801-86.361v-19.073H66.413v103.724h19.07v-82.31c.072-.457.152-.926.42-1.297.404-.557 1.08-.799 1.783-.911l82.357-.133zm23.515 50.664v-46.285l-103.662.168v78.902l43.247-40.977c.555-.383.56-.385 1.204-.582l.678.008c.64.212.645.215 1.19.612l9.7 9.65 22.713-21.937c.731-.644.755-.687 1.812-.601.739.127.876.276 1.228.577l21.89 20.465zm-82.747-36.64c5.527.053 10.759 4.316 11.815 9.83.75 3.916-.578 8.17-3.435 10.963-3.337 3.262-8.645 4.348-13.035 2.552-3.876-1.586-6.798-5.307-7.405-9.457-.75-5.121 2.168-10.558 6.864-12.754a12.198 12.198 0 015.196-1.134zm-.128 4.417c-3.497.034-6.782 2.691-7.491 6.151-.984 4.807 3.48 10.142 8.951 9.127 3.12-.578 5.742-3.285 6.205-6.447.627-4.286-2.878-8.757-7.515-8.83l-.15-.001z" fill="url(#paint0_linear)"/><path d="M69.004 248.588c1.072 0 1.904.26 2.496.78.592.512.888 1.236.888 2.172 0 .992-.296 1.764-.888 2.316-.592.544-1.424.816-2.496.816h-1.5V257h-2.196v-8.412h3.696zm-.108 4.332c.448 0 .792-.112 1.032-.336.248-.224.372-.548.372-.972 0-.408-.124-.72-.372-.936-.24-.224-.584-.336-1.032-.336h-1.392v2.58h1.392zm4.568-4.332h2.196v3.432h3.396v-3.432h2.196V257h-2.196v-3.228H75.66V257h-2.196v-8.412zm13.43-.132c.856 0 1.628.188 2.316.564.696.376 1.24.892 1.632 1.548.4.656.6 1.392.6 2.208 0 .824-.2 1.568-.6 2.232a4.226 4.226 0 01-1.632 1.572c-.688.384-1.46.576-2.316.576-.856 0-1.632-.188-2.328-.564a4.338 4.338 0 01-1.632-1.572 4.371 4.371 0 01-.588-2.244c0-.816.196-1.552.588-2.208.4-.656.944-1.172 1.632-1.548.696-.376 1.472-.564 2.328-.564zm.024 1.86c-.416 0-.804.108-1.164.324a2.338 2.338 0 00-.84.9 2.535 2.535 0 00-.312 1.248c0 .464.104.888.312 1.272.216.376.5.676.852.9.352.216.736.324 1.152.324.416 0 .796-.108 1.14-.324.352-.224.628-.524.828-.9.2-.384.3-.808.3-1.272 0-.456-.1-.872-.3-1.248a2.252 2.252 0 00-.828-.9 2.101 2.101 0 00-1.14-.324zm4.6-1.728h7.212v1.812h-2.52v6.6h-2.196v-6.6h-2.496v-1.812zm11.689-.132c.856 0 1.628.188 2.316.564.696.376 1.24.892 1.632 1.548.4.656.6 1.392.6 2.208 0 .824-.2 1.568-.6 2.232a4.226 4.226 0 01-1.632 1.572c-.688.384-1.46.576-2.316.576-.856 0-1.632-.188-2.328-.564a4.339 4.339 0 01-1.632-1.572 4.371 4.371 0 01-.588-2.244c0-.816.196-1.552.588-2.208.4-.656.944-1.172 1.632-1.548.696-.376 1.472-.564 2.328-.564zm.024 1.86c-.416 0-.804.108-1.164.324a2.338 2.338 0 00-.84.9 2.535 2.535 0 00-.312 1.248c0 .464.104.888.312 1.272.216.376.5.676.852.9.352.216.736.324 1.152.324.416 0 .796-.108 1.14-.324.352-.224.628-.524.828-.9.2-.384.3-.808.3-1.272 0-.456-.1-.872-.3-1.248a2.252 2.252 0 00-.828-.9 2.101 2.101 0 00-1.14-.324zm10.325 3.216c0 .528.156.952.468 1.272.312.32.708.48 1.188.48.472 0 .852-.156 1.14-.468.296-.32.444-.748.444-1.284v-4.944h2.196v4.944c0 .728-.156 1.368-.468 1.92a3.091 3.091 0 01-1.32 1.26c-.568.296-1.236.444-2.004.444s-1.444-.148-2.028-.444a3.244 3.244 0 01-1.344-1.26c-.312-.552-.468-1.192-.468-1.92v-4.944h2.196v4.944zm12.684-4.944h2.04V257h-1.92l-3.816-5.028V257h-2.052v-8.412h1.932l3.828 5.064-.012-5.064zm9.865 8.412l-.576-1.488h-3.636l-.588 1.488h-2.256l3.612-8.412h2.256l3.528 8.412h-2.34zm-3.552-3.168h2.328l-1.152-3-1.176 3zm5.157-5.244h2.364l2.1 6.084 2.112-6.084h2.256L143.254 257h-2.28l-3.264-8.412zM152.863 257l-.576-1.488h-3.636l-.588 1.488h-2.256l3.612-8.412h2.256l3.528 8.412h-2.34zm-3.552-3.168h2.328l-1.152-3-1.176 3zm6.653-5.244h2.196V257h-2.196v-8.412zm3.832 0h2.196v6.54h3.564V257h-5.76v-8.412zM172.773 257l-.576-1.488h-3.636l-.588 1.488h-2.256l3.612-8.412h2.256l3.528 8.412h-2.34zm-3.552-3.168h2.328l-1.152-3-1.176 3zm10.65-5.244c.632 0 1.18.088 1.644.264.472.168.836.412 1.092.732.256.32.384.696.384 1.128 0 .44-.132.824-.396 1.152-.256.328-.608.552-1.056.672.536.104.956.348 1.26.732.312.384.468.848.468 1.392 0 .472-.132.888-.396 1.248-.264.352-.64.624-1.128.816-.488.184-1.06.276-1.716.276h-4.152v-8.412h3.996zm-.12 3.348c.304 0 .544-.072.72-.216.176-.152.264-.36.264-.624 0-.256-.088-.452-.264-.588-.176-.144-.416-.212-.72-.204h-1.68v1.632h1.68zm0 3.36c.384 0 .688-.08.912-.24a.779.779 0 00.336-.672.716.716 0 00-.336-.624c-.224-.16-.528-.236-.912-.228h-1.68v1.764h1.68zm4.713-6.708h2.196v6.54h3.564V257h-5.76v-8.412zm6.762 0h6.636v1.752h-4.44v1.572h4.008v1.74l-4.008.012v1.584h4.56V257h-6.756v-8.412z" fill="#1A0F51"/></g><defs><linearGradient id="paint0_linear" x1="62" y1="98" x2="211.601" y2="253.398" gradientUnits="userSpaceOnUse"><stop stop-color="#4B3674"/><stop offset="1" stop-color="#21125E"/></linearGradient></defs></svg>