<svg width="36" height="36" fill="none" xmlns="http://www.w3.org/2000/svg"><path d="M18 0C8.075 0 0 8.075 0 18c0 9.924 8.075 18 18 18 9.924 0 18-8.076 18-18 0-9.925-8.074-18-18-18zm8.03 13.88c.008.179.012.358.012.538 0 5.475-4.166 11.786-11.788 11.786a11.72 11.72 0 01-6.351-1.86 8.315 8.315 0 006.134-1.716 4.147 4.147 0 01-3.87-2.877 4.18 4.18 0 001.87-.07 4.144 4.144 0 01-3.323-4.062l.001-.052c.558.31 1.197.496 1.876.517a4.14 4.14 0 01-1.843-3.447c0-.76.204-1.472.56-2.084a11.764 11.764 0 008.54 4.33 4.141 4.141 0 01-.107-.945 4.143 4.143 0 017.166-2.835 8.27 8.27 0 002.632-1.005 4.161 4.161 0 01-1.824 2.292c.84-.1 1.64-.322 2.38-.652a8.332 8.332 0 01-2.065 2.142z" fill="#21125E"/></svg>