<svg width="22" height="24" fill="none" xmlns="http://www.w3.org/2000/svg"><path fill-rule="evenodd" clip-rule="evenodd" d="M21.233 20.227c0 .544.27 2.276-.483 3.023.002.001-2.25.75-9.75.75-7.503 0-9.774-.75-9.75-.75-.75-.756-.483-2.479-.483-3.023 0-2.227 2.954-5.22 5.92-5.977.835-.205 1.318-1.172.75-1.5C5.982 11.998 5.221 8.502 5.221 6c0-3.832 3.145-6 6.107-6 2.96 0 5.893 2.169 5.893 6 0 2.387-.741 5.965-2.25 6.75-.617.352.001 1.275.75 1.5 3.017.762 5.512 3.797 5.512 5.977zm-1.492 1.72c-.409.077-.82.14-1.233.19-.964.116-1.932.198-2.901.249A83.97 83.97 0 0111 22.5a83.511 83.511 0 01-4.596-.114 41.614 41.614 0 01-2.902-.248 18.3 18.3 0 01-1.241-.19 3.743 3.743 0 01-.04-.577c.002-.223.01-.446.025-.67.01-.151.018-.303.02-.457.002-.151.025-.303.07-.45a3.11 3.11 0 01.258-.62c.134-.248.285-.484.456-.707a7.48 7.48 0 01.63-.724 8.437 8.437 0 011.61-1.271c.288-.176.586-.33.893-.465.283-.124.576-.225.874-.304a2.905 2.905 0 001.466-.889 2.66 2.66 0 00.452-.691c.131-.29.203-.602.208-.92a2.007 2.007 0 00-.244-.99 1.987 1.987 0 00-.787-.781.38.38 0 01-.114-.09 2.012 2.012 0 01-.26-.356 4.496 4.496 0 01-.288-.599 8.084 8.084 0 01-.264-.768 12.528 12.528 0 01-.377-1.815c-.085-.6-.126-1.204-.128-1.808-.002-.35.034-.7.107-1.04A4.16 4.16 0 018.154 2.69 4.875 4.875 0 0111.33 1.5c.559-.001 1.114.1 1.635.3.52.196.994.488 1.4.863.417.387.749.855.974 1.377.123.286.217.587.28.894.069.349.102.705.102 1.06a13.398 13.398 0 01-.125 1.754 12.576 12.576 0 01-.377 1.815 8.298 8.298 0 01-.266.78 4.72 4.72 0 01-.297.612 2.099 2.099 0 01-.27.373.485.485 0 01-.13.101c-.318.172-.584.43-.77.739a1.97 1.97 0 00-.268 1.022c.008.335.09.665.242.965a3.067 3.067 0 001.86 1.54c.306.077.602.178.887.307.289.13.566.281.832.454a7.069 7.069 0 012.001 1.96c.15.222.283.459.4.702.095.205.172.417.228.634.041.16.064.325.064.49.004.157.01.313.022.468.015.22.023.445.025.67a3.763 3.763 0 01-.038.566z" fill="#323232"/></svg>