<svg width="54" height="35" fill="none" xmlns="http://www.w3.org/2000/svg"><rect width="54" height="35" rx="3" fill="#21125E"/><path fill-rule="evenodd" clip-rule="evenodd" d="M32.798 13.679a6.453 6.453 0 012.616.49l.315.149.473-2.78c-.692-.26-1.777-.538-3.13-.538-3.455 0-5.889 1.74-5.908 4.232-.022 1.842 1.734 2.87 3.061 3.485 1.362.629 1.819 1.029 1.812 1.59-.01.86-1.086 1.253-2.09 1.253-1.4 0-2.143-.193-3.29-.672l-.451-.205-.492 2.87c.818.36 2.328.668 3.894.684 3.674 0 6.062-1.719 6.087-4.382.015-1.458-.917-2.57-2.937-3.482-1.222-.595-1.97-.99-1.963-1.591 0-.533.635-1.103 2.003-1.103zM20.032 24.044l2.185-12.824h3.497l-2.187 12.824h-3.495zm-6.354-4.064l3.424-8.745 3.702-.003-5.504 12.8-3.698.006-3.13-10.694c2.25 1.44 4.166 3.725 4.841 5.316l.365 1.32zm28.793-8.745h2.7L48 24.052h-3.243s-.322-1.474-.426-1.921l-2.454-.003-2.022-.003c-.135.346-.734 1.927-.734 1.927h-3.67l5.19-11.753c.368-.836.992-1.064 1.83-1.064zm-.217 4.681s-1.105 2.848-1.393 3.584h2.904l-.81-3.702-.236-1.106c-.088.236-.206.543-.3.79-.1.258-.175.452-.165.434z" fill="#fff"/><path d="M11.987 12.152c-.204-.78-.792-1.014-1.523-1.041h-5.42L5 11.366c4.217 1.023 7.007 3.488 8.165 6.452l-1.178-5.666z" fill="#FAA61A"/></svg>