<svg width="36" height="36" fill="none" xmlns="http://www.w3.org/2000/svg"><path d="M14.72 21.945l8.08-4.19-8.08-4.215v8.405z" fill="#21125E"/><path d="M18 0C8.06 0 0 8.059 0 18s8.06 18 18 18 18-8.059 18-18S27.94 0 18 0zm12.264 24.008c-.311 1.352-1.417 2.349-2.747 2.497-3.152.353-6.341.355-9.518.353-3.176.002-6.366 0-9.518-.353-1.331-.148-2.436-1.145-2.747-2.497-.443-1.925-.443-4.026-.443-6.008 0-1.982.005-4.084.448-6.008.311-1.352 1.416-2.35 2.747-2.498 3.152-.352 6.342-.354 9.518-.352 3.176-.002 6.366 0 9.517.352 1.332.149 2.437 1.146 2.748 2.498.443 1.925.44 4.026.44 6.008 0 1.982-.002 4.083-.445 6.008z" fill="#21125E"/></svg>